<svg version="1.1" xmlns="http://www.w3.org/2000/svg" viewBox="0 0 32 32">
<path d="M6.4 21.714v2.057c0 0.229 0.229 0.457 0.457 0.457h18.057c0.229 0 0.457-0.229 0.457-0.457v-2.514c0 0 3.657-2.971 3.2-6.171s-3.2-5.029-6.629-4.8c0 0 2.057 5.029-1.371 8.229 0 0-0.229 0.229-0.229 0.229-0.229 0-0.686 0.229-0.914 0.229-0.686 0-1.371-0.686 0-2.286 0 0 1.6-1.371 0.686-5.486 0-0.457-0.457-0.914-0.686-1.371s-1.143-1.6-2.743-1.829c0 0-0.457 0-0.686 0s-0.686 0-0.686 0c-1.371 0.457-2.286 1.371-2.971 2.057-0.457 0.457-0.686 0.914-0.686 1.371-0.914 4.114 0.686 5.486 0.686 5.486 1.371 1.371 0.686 2.057 0 2.286-0.229 0-0.686-0.229-0.914-0.457 0 0-0.229 0-0.229-0.229-3.429-3.2-1.371-8.229-1.371-8.229-3.429-0.229-6.171 1.6-6.629 4.8s3.2 6.629 3.2 6.629z"></path>
<path d="M24.686 26.057h-17.371c-0.457 0-0.686 0.229-0.686 0.686v1.829c0 0.457 0.229 0.686 0.686 0.686h17.6c0.457 0 0.686-0.229 0.686-0.686v-1.829c0-0.457-0.457-0.686-0.914-0.686z"></path>
<path d="M17.829 4.571c0 1.010-0.819 1.829-1.829 1.829s-1.829-0.819-1.829-1.829c0-1.010 0.819-1.829 1.829-1.829s1.829 0.819 1.829 1.829z"></path>
</svg>
