<?xml version="1.0" encoding="utf-8"?>
<!-- Generator: Adobe Illustrator 24.0.1, SVG Export Plug-In . SVG Version: 6.00 Build 0)  -->
<svg version="1.1" id="Layer_1" xmlns="http://www.w3.org/2000/svg" xmlns:xlink="http://www.w3.org/1999/xlink" x="0px" y="0px"
	 viewBox="0 0 46 46" style="enable-background:new 0 0 46 46;" xml:space="preserve">
<style type="text/css">
	.st0{fill-rule:evenodd;clip-rule:evenodd;fill:#4285F4;}
	.st1{fill-rule:evenodd;clip-rule:evenodd;fill:#34A853;}
	.st2{fill-rule:evenodd;clip-rule:evenodd;fill:#FBBC05;}
	.st3{fill-rule:evenodd;clip-rule:evenodd;fill:#EA4335;}
</style>
<g>
	<path class="st0" d="M42.4,23.5c0-1.4-0.1-2.8-0.4-4.1H23.4v7.7h10.7c-0.4,2.4-1.9,4.6-4,6v5h6.4C40.3,34.6,42.4,29.5,42.4,23.5z"
		/>
	<path class="st1" d="M23.4,42.8c5.3,0,9.8-1.8,13.1-4.8l-6.4-5c-1.8,1.2-4,1.9-6.7,1.9c-5.2,0-9.5-3.5-11.1-8.2H5.7v5.1
		C9.1,38.6,15.9,42.8,23.4,42.8z"/>
	<path class="st2" d="M12.3,26.8c-0.4-1.2-0.6-2.5-0.6-3.8c0-1.3,0.2-2.6,0.6-3.8v-5.1H5.7c-1.4,2.8-2.1,5.8-2.1,8.9
		c0,3.2,0.8,6.2,2.1,8.9L12.3,26.8z"/>
	<path class="st3" d="M23.4,11.1c2.9,0,5.5,1,7.6,3l5.7-5.7c-3.4-3.2-7.9-5.2-13.3-5.2c-7.5,0-14.3,4.2-17.7,10.9l6.6,5.1
		C13.9,14.6,18.2,11.1,23.4,11.1z"/>
</g>
</svg>
