<svg version="1.1" xmlns="http://www.w3.org/2000/svg" viewBox="0 0 32 32">
<path d="M28.864 13.952v-4.192c0-0.864-0.704-1.568-1.568-1.568h-10.656l-0.128-6.016c0.384-0.192 0.64-0.576 0.64-1.024 0-0.64-0.512-1.152-1.152-1.152s-1.152 0.512-1.152 1.152c0 0.48 0.288 0.864 0.672 1.056l-0.16 5.984h-10.656c-0.864 0-1.568 0.704-1.568 1.568v4.192c-0.832 0-1.536 0.704-1.536 1.536v4.032c0 0.832 0.704 1.536 1.536 1.536v4.192c0 0.864 0.704 1.568 1.568 1.568h22.56c0.864 0 1.568-0.704 1.568-1.568v-4.192c0.832 0 1.536-0.704 1.536-1.536v-4.032c0.032-0.864-0.672-1.536-1.504-1.536zM6.592 15.36c0-1.92 1.568-3.488 3.488-3.488s3.488 1.568 3.488 3.488-1.568 3.488-3.488 3.488c-1.92 0.032-3.488-1.536-3.488-3.488zM20.384 23.072h-8.768v-2.048h8.768v2.048zM21.92 18.88c-1.92 0-3.488-1.568-3.488-3.488s1.568-3.488 3.488-3.488 3.488 1.568 3.488 3.488-1.568 3.488-3.488 3.488z"></path>
</svg>
