<svg version="1.1" xmlns="http://www.w3.org/2000/svg" viewBox="0 0 32 32">
<path d="M21.714 27.2c0.457 0 0.686 0 1.143-0.229v1.6c0 1.371-1.143 2.286-2.286 2.286h-9.143c-1.371 0-2.286-1.143-2.286-2.286v-1.6c0.457 0 0.686 0.229 1.143 0.229h1.143v1.6c0 0.457 0.457 0.686 0.686 0.686s0.686-0.457 0.686-0.686v-1.6h2.286v1.6c0 0.457 0.457 0.686 0.686 0.686s0.686-0.457 0.686-0.686v-1.6h2.286v1.6c0 0.457 0.457 0.686 0.686 0.686s1.143-0.229 1.143-0.686v-1.6h1.143zM26.286 19.657c0.229 0.457 0.229 0.914 0.229 1.371 0 2.514-2.057 4.571-4.571 4.571h-1.371v-1.6c0-0.457-0.457-0.686-0.686-0.686s-0.686 0.457-0.686 0.686v1.6h-2.286v-1.6c0-0.457-0.457-0.686-0.686-0.686s-0.686 0.457-0.686 0.686v1.6h-2.286v-1.6c0-0.457-0.457-0.686-0.686-0.686s-1.143 0.457-1.143 0.914v1.6h-1.143c-2.514 0-4.571-2.057-4.571-4.571 0-0.457 0-0.914 0.229-1.371 0-0.229 0-0.457 0-0.686-1.371-2.057-2.057-4.114-2.057-6.4 0-6.629 5.486-12.114 12.114-12.114s12.114 5.486 12.114 12.114c0 2.057-0.686 4.343-1.6 6.171-0.229 0.229-0.229 0.457-0.229 0.686zM14.857 15.543c0-2.057-1.829-3.886-3.886-3.886s-3.886 1.829-3.886 3.886 1.829 3.886 3.886 3.886 3.886-1.6 3.886-3.886zM24.914 15.543c0-2.057-1.829-3.886-3.886-3.886s-3.886 1.829-3.886 3.886 1.829 3.886 3.886 3.886c2.057 0 3.886-1.6 3.886-3.886zM21.029 13.257c-1.371 0-2.286 1.143-2.286 2.286s1.143 2.286 2.286 2.286c1.371 0 2.286-1.143 2.286-2.286s-0.914-2.286-2.286-2.286zM10.971 13.257c-1.371 0-2.286 1.143-2.286 2.286s1.143 2.286 2.286 2.286 2.286-1.143 2.286-2.286-0.914-2.286-2.286-2.286z"></path>
</svg>
