<svg version="1.1" xmlns="http://www.w3.org/2000/svg" viewBox="0 0 32 32">
<title>Tic Tac Toe</title>
<path d="M30.187 0.427h-28.48c-0.704 0-1.28 0.576-1.28 1.28v28.48c0 0.704 0.576 1.28 1.28 1.28h28.48c0.704 0 1.28-0.576 1.28-1.28v-28.48c0-0.704-0.576-1.28-1.28-1.28zM15.488 13.12c0.043 0.043 0.075 0.085 0.085 0.139 0.053 0.139 0.021 0.299-0.085 0.416l-1.792 1.792c-0.107 0.107-0.277 0.139-0.416 0.085-0.053-0.021-0.096-0.053-0.139-0.085l-3.787-3.787-3.787 3.787c-0.043 0.043-0.085 0.075-0.139 0.085-0.139 0.053-0.299 0.021-0.416-0.085l-1.792-1.792c-0.107-0.107-0.139-0.277-0.085-0.416 0.021-0.053 0.053-0.096 0.085-0.139l3.787-3.787-3.765-3.776c-0.043-0.043-0.075-0.085-0.085-0.139-0.053-0.139-0.021-0.299 0.085-0.416l1.792-1.792c0.107-0.107 0.277-0.139 0.416-0.085 0.053 0.021 0.096 0.053 0.139 0.085l3.787 3.787 3.787-3.787c0.043-0.043 0.085-0.075 0.139-0.085 0.139-0.053 0.299-0.021 0.416 0.085l1.792 1.792c0.107 0.107 0.139 0.277 0.085 0.416-0.021 0.053-0.053 0.096-0.085 0.139l-3.787 3.787 3.765 3.776zM28.213 24.992c-0.32 0.757-0.768 1.429-1.333 1.995s-1.227 1.013-1.995 1.333c-0.757 0.32-1.568 0.48-2.432 0.48s-1.675-0.16-2.432-0.48c-0.757-0.32-1.429-0.768-1.995-1.333s-1.013-1.227-1.333-1.995c-0.32-0.757-0.48-1.568-0.48-2.432s0.16-1.675 0.48-2.432 0.768-1.429 1.333-1.995 1.227-1.013 1.995-1.333c0.757-0.32 1.568-0.48 2.432-0.48s1.675 0.16 2.432 0.48c0.757 0.32 1.429 0.768 1.995 1.333s1.013 1.227 1.333 1.995c0.32 0.757 0.48 1.568 0.48 2.432s-0.16 1.675-0.48 2.432z"></path>
</svg>
