<?xml version="1.0" standalone="no"?>
<!DOCTYPE svg PUBLIC "-//W3C//DTD SVG 20010904//EN"
 "http://www.w3.org/TR/2001/REC-SVG-20010904/DTD/svg10.dtd">
<svg version="1.0" xmlns="http://www.w3.org/2000/svg"
 width="1001.000000pt" height="1001.000000pt" viewBox="0 0 1001.000000 1001.000000"
 preserveAspectRatio="xMidYMid meet">
<metadata>
Created by potrace 1.14, written by Peter Selinger 2001-2017
</metadata>
<g transform="translate(0.000000,1001.000000) scale(0.100000,-0.100000)"
fill="#000000" stroke="none">
<path d="M331 9994 c-78 -16 -137 -49 -202 -114 -61 -60 -102 -138 -116 -215
-5 -28 -8 -2079 -8 -4690 l2 -4640 22 -58 c48 -123 136 -209 262 -254 55 -20
88 -20 4710 -20 5066 0 4697 -4 4798 54 98 57 180 170 199 274 12 60 11 9303
0 9353 -33 147 -176 287 -318 312 -76 13 -9284 11 -9349 -2z m1309 -870 c14
-9 301 -292 637 -628 l613 -611 622 622 c421 420 632 624 651 629 15 3 44 3
65 -1 32 -5 78 -47 348 -318 329 -329 334 -336 319 -409 -6 -26 -133 -159
-628 -656 l-622 -622 242 -243 c133 -133 411 -412 618 -620 346 -346 377 -381
382 -417 3 -21 2 -51 -1 -66 -10 -37 -600 -628 -647 -648 -20 -8 -44 -13 -55
-11 -10 2 -26 4 -34 4 -8 1 -296 283 -640 627 l-627 625 -625 -625 c-344 -344
-633 -627 -642 -627 -21 -2 -61 -2 -83 0 -27 2 -641 620 -654 658 -24 75 -36
61 631 728 l620 620 -619 620 c-419 419 -622 629 -627 648 -18 74 -11 83 304
401 164 164 311 307 327 317 37 23 92 24 125 3z m5612 -4248 c133 -9 232 -25
353 -56 241 -62 431 -149 660 -303 33 -22 62 -43 65 -46 3 -3 37 -32 75 -63
72 -58 189 -176 262 -265 175 -212 342 -558 397 -826 38 -182 45 -260 41 -477
-2 -113 -6 -217 -8 -232 -3 -16 -8 -47 -12 -70 -4 -24 -9 -52 -11 -63 -2 -11
-6 -29 -8 -40 -10 -54 -57 -215 -76 -260 -83 -205 -141 -315 -237 -455 -36
-52 -72 -102 -79 -110 -8 -8 -33 -37 -56 -63 -329 -380 -812 -627 -1313 -673
-95 -9 -314 -10 -380 -3 -33 4 -82 10 -110 13 -115 13 -270 51 -400 98 -553
202 -982 623 -1190 1168 -29 76 -61 178 -70 220 -2 8 -8 35 -14 60 -31 136
-43 247 -45 411 -3 168 12 322 48 494 31 149 131 399 226 565 149 259 409 525
667 682 176 107 450 222 578 242 20 4 40 8 44 10 3 2 22 7 41 10 19 3 62 10
95 16 33 5 107 13 165 16 58 4 106 7 107 8 2 2 93 -2 185 -8z"/>
</g>
</svg>
