<?xml version="1.0" standalone="no"?>
<!DOCTYPE svg PUBLIC "-//W3C//DTD SVG 20010904//EN"
 "http://www.w3.org/TR/2001/REC-SVG-20010904/DTD/svg10.dtd">
<svg version="1.0" xmlns="http://www.w3.org/2000/svg"
 width="4267.000000pt" height="4267.000000pt" viewBox="0 0 4267.000000 4267.000000"
 preserveAspectRatio="xMidYMid meet">
<metadata>
Created by potrace 1.11, written by Peter Selinger 2001-2013
</metadata>
<g transform="translate(0.000000,4267.000000) scale(0.100000,-0.100000)"
fill="#000000" stroke="none">
<path d="M0 21337 l0 -21334 21320 0 21320 0 0 21334 0 21333 -21320 0 -21320
0 0 -21333z m41137 3 c0 -10906 -2 -19831 -6 -19831 -16 -4 -39638 -5 -39648
-1 -8 3 -11 4803 -11 19833 l0 19829 19833 0 19832 0 0 -19830z"/>
<path d="M14555 34970 l-2809 -2809 -2802 2801 c-1541 1542 -2806 2804 -2812
2806 -5 1 -327 -315 -716 -704 l-706 -706 2805 -2805 c1543 -1543 2805 -2808
2805 -2811 0 -4 -1262 -1269 -2805 -2812 l-2806 -2806 705 -704 c387 -387 708
-706 713 -707 4 -2 1154 1143 2555 2545 1401 1401 2664 2663 2806 2805 l259
258 2805 -2805 c1544 -1543 2809 -2806 2813 -2806 4 0 325 317 713 705 l706
706 -75 75 c-41 41 -1304 1304 -2806 2807 -1503 1503 -2732 2735 -2730 2740 1
4 1264 1269 2806 2812 l2804 2804 -710 710 -710 709 -2808 -2808z"/>
<path d="M30868 17786 c-1 -2 -120 -6 -263 -10 -143 -3 -276 -8 -295 -10 -19
-2 -72 -7 -116 -10 -45 -4 -93 -9 -105 -11 -13 -2 -51 -6 -84 -9 -33 -4 -71
-8 -85 -11 -14 -2 -45 -6 -70 -9 -70 -9 -104 -15 -275 -47 -196 -38 -193 -37
-213 -43 -9 -3 -28 -7 -42 -10 -14 -2 -63 -14 -110 -26 -47 -12 -92 -23 -100
-25 -41 -8 -253 -72 -397 -120 -471 -157 -894 -356 -1358 -638 -313 -190 -780
-549 -1031 -792 -17 -16 -62 -60 -100 -96 -38 -37 -107 -107 -154 -156 -74
-78 -120 -129 -242 -267 -63 -72 -238 -293 -293 -370 -11 -15 -34 -47 -51 -70
-56 -75 -209 -309 -286 -436 -288 -476 -521 -1010 -677 -1550 -32 -114 -80
-300 -87 -340 -3 -14 -7 -31 -9 -39 -6 -15 -32 -140 -40 -186 -2 -17 -15 -93
-29 -170 -13 -77 -27 -162 -31 -190 -7 -52 -9 -66 -20 -180 -4 -38 -9 -83 -11
-100 -1 -16 -6 -79 -9 -140 -4 -60 -9 -126 -11 -145 -5 -46 -5 -579 0 -650 3
-30 7 -93 10 -140 7 -97 16 -194 21 -230 2 -14 7 -54 10 -90 4 -36 9 -72 10
-81 2 -9 6 -40 10 -70 3 -30 8 -61 10 -69 2 -8 7 -33 10 -55 3 -23 8 -52 10
-65 3 -14 7 -38 10 -55 3 -16 8 -41 10 -55 3 -14 7 -35 10 -48 2 -13 6 -31 9
-40 3 -9 8 -33 11 -52 3 -19 18 -84 32 -145 15 -60 28 -112 28 -115 23 -95
111 -386 126 -412 5 -10 9 -24 9 -32 0 -28 128 -359 218 -561 99 -224 257
-528 375 -720 178 -290 434 -650 557 -784 14 -15 42 -47 62 -72 187 -226 446
-487 703 -710 67 -57 138 -117 159 -134 22 -16 62 -48 90 -71 28 -22 98 -75
156 -117 58 -42 110 -80 115 -85 31 -25 243 -162 367 -237 79 -47 150 -90 158
-95 47 -30 434 -227 525 -267 39 -17 90 -40 115 -51 450 -200 1090 -383 1600
-457 25 -4 56 -8 70 -10 23 -4 50 -7 160 -20 19 -2 64 -6 100 -10 36 -3 81 -8
100 -10 233 -25 931 -25 1095 0 17 3 62 7 100 10 39 3 81 7 95 10 14 2 50 7
80 10 30 3 66 7 80 10 14 2 41 6 60 9 64 9 225 36 250 41 14 3 37 7 53 10 35
7 139 29 252 55 50 12 98 23 108 25 9 2 21 6 25 9 5 3 19 7 33 10 53 10 252
70 394 118 427 143 852 337 1229 562 66 39 131 78 145 86 96 56 496 335 531
370 3 3 60 49 128 104 68 54 129 104 135 110 7 6 55 49 107 95 108 97 366 352
460 456 35 39 80 88 100 110 53 59 285 350 356 446 112 154 344 508 344 526 0
3 6 14 14 22 7 9 35 57 61 106 26 50 51 95 55 100 43 57 283 582 353 770 31
85 40 108 42 115 1 3 5 12 8 20 9 20 78 228 82 249 3 9 16 54 30 101 24 78 87
320 99 380 3 14 15 68 26 120 31 148 77 426 95 585 28 247 39 454 39 750 0
138 -4 304 -8 370 -4 66 -9 140 -11 165 -1 25 -6 72 -9 105 -4 33 -9 78 -11
100 -7 66 -16 138 -21 165 -2 14 -7 45 -10 70 -3 25 -17 106 -31 180 -13 74
-27 146 -29 160 -3 14 -7 32 -9 40 -2 8 -7 29 -9 45 -3 17 -21 93 -41 170 -19
77 -37 147 -39 156 -3 9 -21 72 -41 140 -238 795 -617 1521 -1145 2189 -41 52
-77 97 -80 100 -3 3 -30 34 -60 70 -160 191 -446 483 -635 649 -28 24 -63 56
-80 70 -16 15 -77 65 -135 111 -58 47 -111 91 -119 98 -8 8 -30 24 -50 37 -20
13 -49 35 -65 49 -16 14 -33 26 -37 26 -4 0 -14 6 -21 13 -59 58 -393 272
-688 440 -143 81 -712 347 -775 362 -5 1 -17 5 -25 8 -61 25 -377 134 -415
143 -5 1 -65 18 -133 38 -256 75 -592 146 -847 181 -22 3 -49 7 -60 10 -11 2
-54 7 -95 11 -41 3 -78 8 -81 10 -3 2 -53 6 -110 10 -57 3 -113 8 -124 10 -11
2 -96 6 -190 10 -93 3 -175 7 -182 9 -6 2 -13 2 -15 1z m277 -1920 c22 -3 69
-8 105 -12 121 -11 145 -14 180 -19 434 -65 787 -165 1205 -342 78 -33 331
-160 415 -208 155 -88 482 -303 510 -334 3 -3 34 -28 70 -55 180 -137 476
-417 625 -591 38 -44 77 -89 87 -100 78 -86 428 -584 428 -609 0 -4 12 -25 27
-49 67 -106 217 -419 291 -607 118 -299 241 -764 268 -1015 2 -22 6 -51 9 -65
3 -13 7 -58 11 -99 3 -42 7 -78 9 -81 6 -9 17 -298 18 -430 0 -113 -10 -346
-18 -405 -2 -16 -7 -57 -10 -90 -14 -129 -24 -201 -40 -285 -3 -14 -7 -41 -10
-60 -4 -19 -15 -75 -26 -125 -12 -49 -22 -98 -24 -107 -35 -168 -148 -505
-245 -734 -147 -341 -363 -707 -594 -1004 -262 -336 -555 -624 -891 -876 -128
-96 -301 -212 -408 -273 -17 -10 -61 -35 -97 -56 -375 -215 -884 -405 -1325
-494 -139 -28 -150 -30 -235 -42 -41 -5 -86 -12 -100 -15 -14 -2 -52 -6 -85
-10 -33 -3 -76 -7 -95 -9 -207 -22 -654 -22 -828 0 -16 2 -61 7 -98 10 -37 4
-76 8 -85 10 -9 2 -40 6 -70 10 -51 7 -181 29 -224 39 -11 2 -56 12 -100 21
-412 84 -895 271 -1295 501 -134 77 -323 197 -348 221 -7 7 -17 13 -21 13 -4
0 -16 8 -27 18 -10 9 -32 25 -47 35 -16 10 -38 27 -50 37 -12 10 -61 49 -108
86 -47 38 -115 94 -150 124 -87 74 -384 373 -434 435 -22 27 -46 56 -53 64
-70 73 -322 413 -368 496 -6 11 -36 61 -66 111 -118 194 -241 441 -319 639
-22 55 -44 109 -49 120 -31 68 -155 483 -176 588 -2 12 -10 56 -19 97 -8 41
-17 89 -20 105 -11 56 -34 210 -41 270 -3 33 -8 68 -9 77 -26 136 -26 726 0
943 7 62 36 267 41 295 2 14 7 41 10 60 3 19 7 41 10 49 2 8 7 30 10 50 3 20
9 52 14 71 5 19 11 46 14 60 33 164 167 574 241 737 14 29 25 56 25 59 0 12
145 300 200 399 108 192 308 491 411 613 6 7 34 41 62 75 105 127 119 141 246
272 136 139 193 192 353 331 138 119 412 313 608 429 120 71 369 200 480 249
36 15 79 34 97 42 17 8 34 14 38 14 3 0 25 8 48 19 205 92 628 208 927 256 52
9 105 18 118 20 13 2 53 7 90 11 37 3 75 8 84 10 10 1 68 6 130 9 62 4 115 9
116 10 6 5 533 -3 577 -9z"/>
</g>
</svg>
